<svg xmlns="http://www.w3.org/2000/svg" xmlns:xlink="http://www.w3.org/1999/xlink"
     viewBox="0 0 33.77 33.12">
    <defs>
        <style>
            .cls-1{fill:none;}.cls-2{clip-path:url(#clip-path);}.cls-3{fill:#d12d2d;}.cls-4{fill:url(#linear-gradient);}.cls-5{fill:#fff;}.cls-6{fill:#565656;}
        </style>
        <clipPath id="clip-path" transform="translate(-382.81 -511.69)">
            <rect id="SVGID" class="cls-1" x="383.5" y="512.05" width="32.39" height="32.39" rx="6.94"/>
        </clipPath>
        <linearGradient id="linear-gradient" x1="1202.62" y1="1435.55" x2="1202.62" y2="1412.05"
                        gradientTransform="translate(1823.46 -669.63) rotate(90)" gradientUnits="userSpaceOnUse">
            <stop offset="0" stop-color="#e6e6e6"/>
            <stop offset="1" stop-color="#fff"/>
        </linearGradient>
    </defs>
    <g class="cls-2">
        <rect class="cls-3" x="394.94" y="499.64" width="9.56" height="33.71"
              transform="translate(-500.25 403.68) rotate(-89.91)"/>
        <rect class="cls-4" x="387.94" y="516.17" width="23.5" height="33.71"
              transform="translate(-516.8 420.17) rotate(-89.91)"/>
        <path class="cls-5"
              d="M393.09,515.83a2.36,2.36,0,0,1,.44-.81,2,2,0,0,1,.72-.56,2.32,2.32,0,0,1,1-.21,2.23,2.23,0,0,1,1,.21,2.12,2.12,0,0,1,.72.56,2.4,2.4,0,0,1,.44.82,3.45,3.45,0,0,1,.14,1,3.12,3.12,0,0,1-.15,1,2.29,2.29,0,0,1-.43.8,2,2,0,0,1-.72.56,2.31,2.31,0,0,1-1,.21,2.28,2.28,0,0,1-1-.21,2.06,2.06,0,0,1-.73-.56,2.42,2.42,0,0,1-.43-.81,3.43,3.43,0,0,1,0-1.94Zm.43,1.76a2,2,0,0,0,.33.69,1.67,1.67,0,0,0,1.41.68,1.78,1.78,0,0,0,.83-.18,1.72,1.72,0,0,0,.57-.5,2,2,0,0,0,.33-.69,3,3,0,0,0,.11-.78,3,3,0,0,0-.1-.79,2,2,0,0,0-.33-.69,1.72,1.72,0,0,0-.57-.5,2,2,0,0,0-1.67,0,1.74,1.74,0,0,0-.58.49,2.2,2.2,0,0,0-.33.69,3,3,0,0,0-.1.79A2.64,2.64,0,0,0,393.52,517.59Z"
              transform="translate(-382.81 -511.69)"/>
        <path class="cls-5"
              d="M401.68,515.34a1.34,1.34,0,0,0-.34-.37,1.6,1.6,0,0,0-.45-.23,1.44,1.44,0,0,0-.51-.08,1.86,1.86,0,0,0-.84.18,1.69,1.69,0,0,0-.57.49,2,2,0,0,0-.33.69,3,3,0,0,0-.11.79,2.58,2.58,0,0,0,.11.78,2.24,2.24,0,0,0,.32.7,1.63,1.63,0,0,0,.58.49,1.78,1.78,0,0,0,.83.19,1.38,1.38,0,0,0,.62-.13,1.58,1.58,0,0,0,.48-.33,1.71,1.71,0,0,0,.32-.5,2.38,2.38,0,0,0,.16-.61h.46a2.67,2.67,0,0,1-.21.82,1.92,1.92,0,0,1-.43.61,1.68,1.68,0,0,1-.61.39,2.22,2.22,0,0,1-.79.14,2.31,2.31,0,0,1-1-.21,2.12,2.12,0,0,1-.72-.56,2.43,2.43,0,0,1-.43-.81,3.21,3.21,0,0,1,0-1.94,2.42,2.42,0,0,1,.43-.81,2,2,0,0,1,.73-.56,2.31,2.31,0,0,1,1-.21,2.24,2.24,0,0,1,.68.1,1.85,1.85,0,0,1,.61.31,1.67,1.67,0,0,1,.45.5,1.61,1.61,0,0,1,.23.68h-.47A1.65,1.65,0,0,0,401.68,515.34Z"
              transform="translate(-382.81 -511.69)"/>
        <path class="cls-5" d="M406.49,514.37v.4h-1.71v4.5h-.46v-4.5h-1.7v-.4Z" transform="translate(-382.81 -511.69)"/>
        <path class="cls-6"
              d="M391.22,528.71a3.34,3.34,0,0,0,1.18-.33,2.17,2.17,0,0,0,.84-.81,3.78,3.78,0,0,0,.48-1.51h1l0,14.26h-1.28v-10.6H389.7v-.92C390.26,528.79,390.77,528.76,391.22,528.71Z"
              transform="translate(-382.81 -511.69)"/>
        <path class="cls-6"
              d="M407.11,527.77a2.82,2.82,0,0,0-2-.74,3.11,3.11,0,0,0-2,.63,4.14,4.14,0,0,0-1.2,1.59,7.21,7.21,0,0,0-.58,2.06,17.45,17.45,0,0,0-.14,2.09h0A4.23,4.23,0,0,1,405,531a5.46,5.46,0,0,1,1.95.36,4.43,4.43,0,0,1,1.47,1,4.61,4.61,0,0,1,1,1.51,5.45,5.45,0,0,1,.33,1.92,5,5,0,0,1-.36,1.92,4.46,4.46,0,0,1-2.53,2.53,5.33,5.33,0,0,1-2,.35,5.82,5.82,0,0,1-2.24-.4,3.51,3.51,0,0,1-1.54-1.3,6.41,6.41,0,0,1-.91-2.33,18.56,18.56,0,0,1-.29-3.54c0-.28,0-.66.06-1.12a9.27,9.27,0,0,1,.23-1.47,9.89,9.89,0,0,1,.53-1.59,5.44,5.44,0,0,1,.89-1.46A4.33,4.33,0,0,1,405,526a4.62,4.62,0,0,1,3,.92,4.09,4.09,0,0,1,1.34,2.82h-1.28A3.1,3.1,0,0,0,407.11,527.77Zm-3.65,4.65a3.23,3.23,0,0,0-1.12.8,3.47,3.47,0,0,0-.7,1.19,5,5,0,0,0,0,2.9,3.15,3.15,0,0,0,.64,1.18,3,3,0,0,0,1.11.78,4.1,4.1,0,0,0,1.61.29,3.41,3.41,0,0,0,3.18-2.26,4.34,4.34,0,0,0,.25-1.4,4.44,4.44,0,0,0-.24-1.47,3.52,3.52,0,0,0-.67-1.2,3.14,3.14,0,0,0-1.08-.81,3.51,3.51,0,0,0-1.45-.3A3.59,3.59,0,0,0,403.46,532.42Z"
              transform="translate(-382.81 -511.69)"/>
    </g>
</svg>