<svg id="Слой_1" data-name="Слой 1" xmlns="http://www.w3.org/2000/svg" xmlns:xlink="http://www.w3.org/1999/xlink" viewBox="0 0 32.39 32.39"><defs><style>.cls-1{fill:#d12d2d;}.cls-2{fill:url(#linear-gradient);}</style><linearGradient id="linear-gradient" x1="447.07" y1="518.93" x2="447.07" y2="537.74" gradientUnits="userSpaceOnUse"><stop offset="0" stop-color="#fafafa"/><stop offset="1" stop-color="#dbdbdb"/></linearGradient></defs><rect class="cls-1" width="32.39" height="32.39" rx="6.94"/><path class="cls-2" d="M456.05,519.21a1.16,1.16,0,0,0-.75-.28l-.21,0-10,1.76a1.18,1.18,0,0,0-1,1.16V532a3.81,3.81,0,0,0-2.23-.69,4.53,4.53,0,0,0-1.49.25,4.13,4.13,0,0,0-2.45,2,2.77,2.77,0,0,0-.12,2.2,3.3,3.3,0,0,0,3.23,2,4.8,4.8,0,0,0,1.49-.25,4.13,4.13,0,0,0,2.45-2,3.12,3.12,0,0,0,.29-1.24h0v-9.4l.2,0,9.79-1.73v7.14a3.74,3.74,0,0,0-2.23-.69,4.79,4.79,0,0,0-1.49.24,4.11,4.11,0,0,0-2.45,2A2.78,2.78,0,0,0,449,534a3.32,3.32,0,0,0,3.24,2,4.68,4.68,0,0,0,1.48-.24,4.13,4.13,0,0,0,2.46-2.05,2.86,2.86,0,0,0,.28-1.23h0V520.11A1.15,1.15,0,0,0,456.05,519.21Z" transform="translate(-430.87 -512.14)"/></svg>