<svg id="Слой_1" data-name="Слой 1" xmlns="http://www.w3.org/2000/svg" xmlns:xlink="http://www.w3.org/1999/xlink" viewBox="0 0 33.59 32.51"><defs><style>.cls-1{fill:none;}.cls-2{fill:url(#linear-gradient);}.cls-3{clip-path:url(#clip-path);}.cls-10,.cls-11,.cls-12,.cls-13,.cls-14,.cls-15,.cls-16,.cls-17,.cls-18,.cls-19,.cls-20,.cls-21,.cls-22,.cls-23,.cls-24,.cls-4,.cls-5,.cls-6,.cls-7,.cls-8,.cls-9{fill-rule:evenodd;}.cls-4{fill:url(#linear-gradient-2);}.cls-5{fill:url(#linear-gradient-3);}.cls-6{fill:url(#linear-gradient-4);}.cls-7{fill:url(#linear-gradient-5);}.cls-8{fill:url(#linear-gradient-6);}.cls-9{fill:url(#linear-gradient-7);}.cls-10{fill:url(#linear-gradient-8);}.cls-11{fill:url(#linear-gradient-9);}.cls-12{fill:url(#linear-gradient-10);}.cls-13{fill:url(#linear-gradient-11);}.cls-14{fill:url(#linear-gradient-12);}.cls-15{fill:url(#linear-gradient-13);}.cls-16{fill:url(#linear-gradient-14);}.cls-17{fill:url(#linear-gradient-15);}.cls-18{fill:url(#linear-gradient-16);}.cls-19{fill:url(#linear-gradient-17);}.cls-20{fill:url(#linear-gradient-18);}.cls-21{fill:url(#linear-gradient-19);}.cls-22{fill:url(#linear-gradient-20);}.cls-23{fill:url(#linear-gradient-21);}.cls-24{fill:url(#linear-gradient-22);}.cls-25{fill:#a6a6a6;}.cls-26{fill:url(#linear-gradient-23);}</style><linearGradient id="linear-gradient" x1="552.67" y1="523.74" x2="552.67" y2="491.23" gradientTransform="translate(3.26 -3.53) rotate(0.37)" gradientUnits="userSpaceOnUse"><stop offset="0" stop-color="#d9d9d9"/><stop offset="1" stop-color="#fff"/></linearGradient><clipPath id="clip-path" transform="translate(-536 -491.23)"><rect id="SVGID" class="cls-1" x="536.47" y="491.29" width="32.39" height="32.39" rx="6.94" transform="translate(-3.24 3.55) rotate(-0.37)"/></clipPath><linearGradient id="linear-gradient-2" x1="1296.61" y1="1249.64" x2="1296.61" y2="1248.8" gradientTransform="translate(-741.84 -733.52) rotate(-0.61)" gradientUnits="userSpaceOnUse"><stop offset="0" stop-color="#f2f2f2"/><stop offset="1" stop-color="#8c8c8c"/></linearGradient><linearGradient id="linear-gradient-3" x1="1295.07" y1="1249.64" x2="1295.07" y2="1248.8" xlink:href="#linear-gradient-2"/><linearGradient id="linear-gradient-4" x1="1293.54" y1="1249.64" x2="1293.54" y2="1248.8" xlink:href="#linear-gradient-2"/><linearGradient id="linear-gradient-5" x1="1292" y1="1249.64" x2="1292" y2="1248.8" xlink:href="#linear-gradient-2"/><linearGradient id="linear-gradient-6" x1="1290.47" y1="1249.64" x2="1290.47" y2="1248.8" xlink:href="#linear-gradient-2"/><linearGradient id="linear-gradient-7" x1="1288.94" y1="1249.64" x2="1288.94" y2="1248.8" xlink:href="#linear-gradient-2"/><linearGradient id="linear-gradient-8" x1="1287.4" y1="1249.64" x2="1287.4" y2="1248.8" xlink:href="#linear-gradient-2"/><linearGradient id="linear-gradient-9" x1="1285.87" y1="1249.64" x2="1285.87" y2="1248.8" xlink:href="#linear-gradient-2"/><linearGradient id="linear-gradient-10" x1="1284.33" y1="1249.64" x2="1284.33" y2="1248.8" xlink:href="#linear-gradient-2"/><linearGradient id="linear-gradient-11" x1="1282.8" y1="1249.64" x2="1282.8" y2="1248.8" xlink:href="#linear-gradient-2"/><linearGradient id="linear-gradient-12" x1="1281.27" y1="1249.64" x2="1281.27" y2="1248.8" xlink:href="#linear-gradient-2"/><linearGradient id="linear-gradient-13" x1="1279.73" y1="1249.64" x2="1279.73" y2="1248.8" xlink:href="#linear-gradient-2"/><linearGradient id="linear-gradient-14" x1="1278.2" y1="1249.64" x2="1278.2" y2="1248.8" xlink:href="#linear-gradient-2"/><linearGradient id="linear-gradient-15" x1="1276.67" y1="1249.64" x2="1276.67" y2="1248.8" xlink:href="#linear-gradient-2"/><linearGradient id="linear-gradient-16" x1="1275.13" y1="1249.64" x2="1275.13" y2="1248.8" xlink:href="#linear-gradient-2"/><linearGradient id="linear-gradient-17" x1="1273.6" y1="1249.64" x2="1273.6" y2="1248.8" xlink:href="#linear-gradient-2"/><linearGradient id="linear-gradient-18" x1="1272.06" y1="1249.64" x2="1272.06" y2="1248.8" xlink:href="#linear-gradient-2"/><linearGradient id="linear-gradient-19" x1="1270.53" y1="1249.64" x2="1270.53" y2="1248.8" xlink:href="#linear-gradient-2"/><linearGradient id="linear-gradient-20" x1="1269" y1="1249.64" x2="1269" y2="1248.8" xlink:href="#linear-gradient-2"/><linearGradient id="linear-gradient-21" x1="1267.46" y1="1249.64" x2="1267.46" y2="1248.8" xlink:href="#linear-gradient-2"/><linearGradient id="linear-gradient-22" x1="1265.93" y1="1249.64" x2="1265.93" y2="1248.8" xlink:href="#linear-gradient-2"/><linearGradient id="linear-gradient-23" x1="1360.8" y1="1358.16" x2="1360.8" y2="1348.76" gradientTransform="translate(-808.03 -857.46)" gradientUnits="userSpaceOnUse"><stop offset="0" stop-color="#967e16"/><stop offset="0.1" stop-color="#cbab23"/><stop offset="0.28" stop-color="#f3d244"/><stop offset="1" stop-color="#f1d980"/></linearGradient></defs><rect id="SVGID-2" data-name="SVGID" class="cls-2" x="536.47" y="491.29" width="32.39" height="32.39" rx="6.94" transform="translate(-539.24 -487.68) rotate(-0.37)"/><g class="cls-3"><path class="cls-4" d="M567.57,501.81a.41.41,0,0,1,.41-.42.42.42,0,0,1,.43.41.43.43,0,0,1-.42.43A.42.42,0,0,1,567.57,501.81Z" transform="translate(-536 -491.23)"/><path class="cls-5" d="M566,501.83a.43.43,0,0,1,.42-.43.42.42,0,0,1,.42.42.42.42,0,0,1-.84,0Z" transform="translate(-536 -491.23)"/><path class="cls-6" d="M564.5,501.84a.41.41,0,0,1,.41-.42.42.42,0,1,1-.41.42Z" transform="translate(-536 -491.23)"/><path class="cls-7" d="M563,501.86a.43.43,0,1,1,.43.42A.44.44,0,0,1,563,501.86Z" transform="translate(-536 -491.23)"/><path class="cls-8" d="M561.43,501.88a.42.42,0,1,1,.84,0,.42.42,0,0,1-.84,0Z" transform="translate(-536 -491.23)"/><path class="cls-9" d="M559.9,501.89a.41.41,0,0,1,.41-.42.42.42,0,0,1,.43.41.42.42,0,0,1-.42.43A.42.42,0,0,1,559.9,501.89Z" transform="translate(-536 -491.23)"/><path class="cls-10" d="M558.36,501.91a.44.44,0,0,1,.42-.43.43.43,0,0,1,0,.85A.44.44,0,0,1,558.36,501.91Z" transform="translate(-536 -491.23)"/><path class="cls-11" d="M556.83,501.93a.42.42,0,1,1,.42.41A.41.41,0,0,1,556.83,501.93Z" transform="translate(-536 -491.23)"/><path class="cls-12" d="M555.3,501.94a.41.41,0,0,1,.41-.42.42.42,0,1,1-.41.42Z" transform="translate(-536 -491.23)"/><path class="cls-13" d="M553.76,502a.44.44,0,0,1,.42-.43.42.42,0,0,1,.42.42.42.42,0,0,1-.84,0Z" transform="translate(-536 -491.23)"/><path class="cls-14" d="M552.23,502a.41.41,0,0,1,.41-.42.42.42,0,1,1-.41.42Z" transform="translate(-536 -491.23)"/><path class="cls-15" d="M550.69,502a.43.43,0,0,1,.85,0,.43.43,0,0,1-.85,0Z" transform="translate(-536 -491.23)"/><path class="cls-16" d="M549.16,502a.42.42,0,1,1,.84,0,.42.42,0,0,1-.84,0Z" transform="translate(-536 -491.23)"/><path class="cls-17" d="M547.63,502a.41.41,0,0,1,.41-.42.42.42,0,0,1,.43.41.42.42,0,0,1-.42.43A.42.42,0,0,1,547.63,502Z" transform="translate(-536 -491.23)"/><path class="cls-18" d="M546.09,502a.44.44,0,0,1,.42-.43.43.43,0,0,1,0,.85A.44.44,0,0,1,546.09,502Z" transform="translate(-536 -491.23)"/><path class="cls-19" d="M544.56,502.06a.42.42,0,1,1,.42.41A.41.41,0,0,1,544.56,502.06Z" transform="translate(-536 -491.23)"/><path class="cls-20" d="M543,502.07a.41.41,0,0,1,.41-.42.42.42,0,1,1,0,.84A.42.42,0,0,1,543,502.07Z" transform="translate(-536 -491.23)"/><path class="cls-21" d="M541.49,502.09a.44.44,0,0,1,.42-.43.43.43,0,1,1-.42.43Z" transform="translate(-536 -491.23)"/><path class="cls-22" d="M540,502.11a.42.42,0,1,1,.42.41A.42.42,0,0,1,540,502.11Z" transform="translate(-536 -491.23)"/><path class="cls-23" d="M538.42,502.12a.43.43,0,1,1,.43.42A.44.44,0,0,1,538.42,502.12Z" transform="translate(-536 -491.23)"/><path class="cls-24" d="M536.89,502.14a.43.43,0,0,1,.42-.43.42.42,0,0,1,.42.42.42.42,0,0,1-.84,0Z" transform="translate(-536 -491.23)"/><rect class="cls-25" x="536.29" y="521.43" width="33.14" height="0.31" transform="translate(-541.53 -485.31) rotate(-0.61)"/><polygon class="cls-25" points="33.4 27.72 0.26 28.07 0.26 27.77 33.4 27.41 33.4 27.72"/><polygon class="cls-25" points="33.37 25.11 0.23 25.47 0.23 25.16 33.37 24.81 33.37 25.11"/><polygon class="cls-25" points="33.34 22.51 0.2 22.86 0.2 22.55 33.34 22.2 33.34 22.51"/><rect class="cls-25" x="536.18" y="511" width="33.14" height="0.31" transform="translate(-541.41 -485.32) rotate(-0.61)"/><rect class="cls-25" x="536.15" y="508.39" width="33.14" height="0.31" transform="translate(-541.39 -485.32) rotate(-0.61)"/><polygon class="cls-25" points="33.26 14.68 0.12 15.04 0.12 14.73 33.26 14.38 33.26 14.68"/><rect class="cls-26" x="536.02" y="491.37" width="33.55" height="9.4" transform="translate(-538.26 -488.7) rotate(-0.26)"/></g></svg>