<svg id="Слой_1" data-name="Слой 1" xmlns="http://www.w3.org/2000/svg" viewBox="0 0 89.59 89.59"><defs><style>.cls-1{fill:#6c7883;}</style></defs><path class="cls-1" d="M624.17,588.32a50.74,50.74,0,0,1-16-2.54,7.3,7.3,0,0,0-7.1,1.5L591,594.88c-11.69-6.24-18.88-13.43-25-25l7.38-9.81a7.25,7.25,0,0,0,1.78-7.34,51,51,0,0,1-2.55-16,7.2,7.2,0,0,0-7.19-7.19H549a7.2,7.2,0,0,0-7.19,7.19,82.49,82.49,0,0,0,82.39,82.4,7.2,7.2,0,0,0,7.19-7.19V595.51A7.2,7.2,0,0,0,624.17,588.32Z" transform="translate(-541.78 -529.52)"/></svg>