<svg id="Слой_1" data-name="Слой 1" xmlns="http://www.w3.org/2000/svg" xmlns:xlink="http://www.w3.org/1999/xlink" viewBox="0 0 32.39 32.39"><defs><style>.cls-1{fill:url(#Безымянный_градиент_21);}.cls-2{fill:url(#Безымянный_градиент_35);}.cls-3{fill:#fff;}.cls-4{fill:#ff4e50;}.cls-5{fill:#eee;}</style><linearGradient id="Безымянный_градиент_21" x1="16.19" x2="16.19" y2="32.39" gradientUnits="userSpaceOnUse"><stop offset="0" stop-color="#f2f2f2"/><stop offset="0.5" stop-color="#e9e9e9"/><stop offset="1" stop-color="#f2f2f2"/></linearGradient><linearGradient id="Безымянный_градиент_35" x1="438.32" y1="526.06" x2="438.32" y2="540.48" gradientTransform="translate(-463.16 -464.2) scale(1.86)" gradientUnits="userSpaceOnUse"><stop offset="0" stop-color="#59c2f6"/><stop offset="0.5" stop-color="#2d89c9"/><stop offset="1" stop-color="#0061d4"/></linearGradient></defs><rect class="cls-1" width="32.39" height="32.39" rx="6.85"/><path class="cls-2" d="M365.93,528.16a13.42,13.42,0,1,1-13.42-13.41A13.42,13.42,0,0,1,365.93,528.16Z" transform="translate(-336.32 -511.97)"/><path class="cls-3" d="M355.64,517.47a.13.13,0,0,1-.09-.16l.36-1.23a.13.13,0,0,1,.16-.08.13.13,0,0,1,.09.16l-.37,1.22A.12.12,0,0,1,355.64,517.47Zm-2-.51.12-1.27a.13.13,0,0,0-.12-.14.12.12,0,0,0-.14.11l-.11,1.27a.12.12,0,0,0,.11.14A.12.12,0,0,0,353.61,517Zm-2.23,0-.13-1.27a.12.12,0,0,0-.14-.11.11.11,0,0,0-.11.13l.13,1.28a.13.13,0,0,0,.25,0Zm-2.18.44-.37-1.22a.14.14,0,0,0-.16-.08.13.13,0,0,0-.09.16l.38,1.22a.12.12,0,0,0,.16.08A.12.12,0,0,0,349.2,517.41Zm-2.05.87-.61-1.13a.13.13,0,0,0-.17,0,.13.13,0,0,0-.05.17l.61,1.13a.13.13,0,0,0,.17.05A.12.12,0,0,0,347.15,518.28Zm-1.84,1.24-.82-1a.14.14,0,0,0-.18,0,.13.13,0,0,0,0,.18l.82,1a.11.11,0,0,0,.17,0A.13.13,0,0,0,345.31,519.52Zm-1.57,1.58-1-.8a.12.12,0,0,0-.18,0,.14.14,0,0,0,0,.18l1,.8a.12.12,0,0,0,.17,0A.12.12,0,0,0,343.74,521.1ZM342.52,523l-1.13-.6a.13.13,0,0,0-.17.06.12.12,0,0,0,0,.17l1.13.59a.12.12,0,0,0,.17,0A.13.13,0,0,0,342.52,523Zm-.84,2.06-1.23-.36a.13.13,0,0,0-.16.08.13.13,0,0,0,.09.16l1.23.36a.12.12,0,0,0,.15-.08A.13.13,0,0,0,341.68,525Zm-.43,2.18-1.27-.11a.12.12,0,0,0-.14.11.14.14,0,0,0,.12.14l1.27.12a.14.14,0,0,0,.14-.12A.13.13,0,0,0,341.25,527.2Zm0,2.23-1.27.13a.13.13,0,0,0-.12.14.12.12,0,0,0,.14.11l1.27-.13a.14.14,0,0,0,.12-.14A.12.12,0,0,0,341.27,529.43Zm.44,2.18-1.22.38a.12.12,0,0,0-.08.15.13.13,0,0,0,.16.09l1.22-.38a.13.13,0,0,0,.08-.16A.12.12,0,0,0,341.71,531.61Zm.86,2-1.12.61a.13.13,0,1,0,.12.22l1.12-.61a.11.11,0,0,0,.05-.17A.13.13,0,0,0,342.57,533.66Zm1.25,1.84-1,.82a.12.12,0,0,0,0,.18.13.13,0,0,0,.18,0l1-.81a.13.13,0,0,0-.16-.2Zm1.58,1.57-.8,1a.13.13,0,0,0,0,.18.14.14,0,0,0,.18,0l.81-1a.14.14,0,0,0,0-.18A.12.12,0,0,0,345.4,537.07Zm1.86,1.22-.6,1.14a.13.13,0,0,0,0,.17.13.13,0,0,0,.17-.06l.6-1.13a.13.13,0,1,0-.22-.12Zm2.06.84-.37,1.23a.13.13,0,0,0,.25.07l.36-1.22a.13.13,0,0,0-.09-.16A.12.12,0,0,0,349.32,539.13Zm2.18.43-.12,1.27a.13.13,0,0,0,.26,0l.11-1.27a.12.12,0,0,0-.11-.14A.14.14,0,0,0,351.5,539.56Zm2.22,0,.14,1.27a.13.13,0,1,0,.25,0l-.13-1.27a.12.12,0,0,0-.14-.11A.13.13,0,0,0,353.72,539.55Zm2.18-.45.38,1.22a.13.13,0,0,0,.16.09.14.14,0,0,0,.09-.16l-.38-1.22a.13.13,0,0,0-.25.07Zm2.06-.86.61,1.12a.12.12,0,0,0,.17,0,.13.13,0,0,0,.05-.17l-.61-1.12a.12.12,0,0,0-.17,0A.12.12,0,0,0,358,538.24ZM359.8,537l.82,1a.12.12,0,0,0,.17,0,.12.12,0,0,0,0-.18l-.82-1a.12.12,0,0,0-.17,0A.11.11,0,0,0,359.8,537Zm1.56-1.58,1,.81a.14.14,0,0,0,.18,0,.14.14,0,0,0,0-.18l-1-.8a.12.12,0,0,0-.17,0A.13.13,0,0,0,361.36,535.41Zm1.23-1.85,1.13.59a.13.13,0,0,0,.17,0,.12.12,0,0,0-.05-.17l-1.13-.6a.12.12,0,0,0-.17.06A.13.13,0,0,0,362.59,533.56Zm.84-2.06,1.23.36a.12.12,0,0,0,.15-.09.12.12,0,0,0-.08-.15l-1.23-.37a.13.13,0,0,0-.07.25Zm.42-2.19,1.28.12a.13.13,0,1,0,0-.25l-1.27-.12a.12.12,0,0,0-.14.11A.12.12,0,0,0,363.85,529.31Zm0-2.22,1.27-.14a.13.13,0,1,0,0-.25l-1.27.14a.12.12,0,0,0-.12.13A.14.14,0,0,0,363.84,527.09Zm-.44-2.18,1.22-.38a.13.13,0,0,0-.08-.24l-1.22.38a.12.12,0,0,0-.08.15A.13.13,0,0,0,363.4,524.91Zm-.86-2,1.12-.61a.13.13,0,0,0,0-.17.12.12,0,0,0-.17-.06l-1.12.61a.13.13,0,0,0-.06.18A.14.14,0,0,0,362.54,522.86ZM361.29,521l1-.81a.13.13,0,0,0,0-.18.13.13,0,0,0-.18,0l-1,.82a.12.12,0,1,0,.16.19Zm-1.58-1.56.8-1a.12.12,0,0,0,0-.17.12.12,0,0,0-.18,0l-.81,1a.14.14,0,0,0,0,.18A.14.14,0,0,0,359.71,519.45Zm-1.86-1.23.6-1.13a.13.13,0,0,0-.05-.17.14.14,0,0,0-.18.05l-.59,1.13a.13.13,0,0,0,.05.17A.12.12,0,0,0,357.85,518.22Zm-5.3-.07v-2.76a.12.12,0,0,0-.12-.13.13.13,0,0,0-.13.13v2.76a.13.13,0,0,0,.13.13A.12.12,0,0,0,352.55,518.15Zm-2.05.34a.13.13,0,0,0,.1-.15l-.54-2.72a.14.14,0,0,0-.15-.1.13.13,0,0,0-.1.15l.54,2.72a.13.13,0,0,0,.13.1Zm-1.85.58a.12.12,0,0,0,.07-.17l-1.06-2.56a.14.14,0,0,0-.16-.07.13.13,0,0,0-.07.17l1.06,2.56a.12.12,0,0,0,.11.08ZM347,520a.12.12,0,0,0,0-.17l-1.54-2.3a.13.13,0,0,0-.18,0,.13.13,0,0,0,0,.18l1.54,2.3a.11.11,0,0,0,.1.06A.09.09,0,0,0,347,520Zm-1.49,1.25a.13.13,0,0,0,0-.18l-1.95-2a.13.13,0,0,0-.18.18l2,2a.12.12,0,0,0,.09,0A.11.11,0,0,0,345.46,521.24Zm-1.21,1.5a.12.12,0,0,0,0-.17l-2.3-1.54a.13.13,0,0,0-.14.21l2.3,1.54.07,0A.14.14,0,0,0,344.25,522.74Zm-.9,1.72a.13.13,0,0,0-.07-.17l-2.56-1a.12.12,0,0,0-.16.06.12.12,0,0,0,.07.17l2.55,1.06h.05A.13.13,0,0,0,343.35,524.46Zm-.55,1.86a.12.12,0,0,0-.1-.15l-2.71-.54a.13.13,0,0,0-.15.1.13.13,0,0,0,.1.15l2.71.54h0A.12.12,0,0,0,342.8,526.32Zm-.3,2a.12.12,0,0,0,.13-.12.13.13,0,0,0-.13-.13h-2.76a.13.13,0,0,0,0,.26ZM340,530.86l2.72-.54a.13.13,0,0,0,.1-.15.14.14,0,0,0-.15-.1l-2.72.55a.12.12,0,0,0-.1.14.15.15,0,0,0,.13.11Zm.77,2.39,2.56-1.06a.14.14,0,0,0,.07-.17.15.15,0,0,0-.17-.07L340.69,533a.15.15,0,0,0-.07.17.13.13,0,0,0,.12.08Zm1.22,2.19,2.3-1.54a.13.13,0,0,0,0-.18.13.13,0,0,0-.17,0l-2.3,1.54a.12.12,0,0,0,0,.17.14.14,0,0,0,.11.06Zm1.62,1.91,1.95-2a.13.13,0,0,0,0-.18.11.11,0,0,0-.17,0l-2,2a.13.13,0,0,0,0,.18.14.14,0,0,0,.09,0Zm2,1.55,1.54-2.3a.12.12,0,0,0,0-.17.12.12,0,0,0-.17,0l-1.54,2.3a.14.14,0,0,0,0,.18l.07,0A.11.11,0,0,0,345.59,538.9Zm2.23,1.15,1.06-2.56a.13.13,0,0,0-.07-.16.13.13,0,0,0-.17.06L347.58,540a.14.14,0,0,0,.07.17h.05A.13.13,0,0,0,347.82,540.05Zm2.41.69.54-2.72a.13.13,0,0,0-.1-.15.13.13,0,0,0-.15.1l-.54,2.72a.14.14,0,0,0,.1.15h0A.13.13,0,0,0,350.23,540.74Zm2.49.2v-2.77a.12.12,0,0,0-.12-.13.13.13,0,0,0-.13.13v2.77a.13.13,0,0,0,.13.13A.12.12,0,0,0,352.72,540.94Zm2.39-.14a.12.12,0,0,0,.1-.15l-.54-2.71a.12.12,0,0,0-.15-.1.13.13,0,0,0-.1.15l.54,2.71a.14.14,0,0,0,.13.1Zm2.42-.75a.13.13,0,0,0,.07-.16l-1.06-2.56a.12.12,0,0,0-.17-.07.14.14,0,0,0-.07.17l1.06,2.55a.13.13,0,0,0,.12.08Zm2.22-1.21a.12.12,0,0,0,0-.17l-1.54-2.3a.13.13,0,0,0-.18,0,.13.13,0,0,0,0,.18l1.54,2.3a.11.11,0,0,0,.1.06A.09.09,0,0,0,359.75,538.84Zm1.95-1.61a.13.13,0,0,0,0-.18l-2-2a.13.13,0,0,0-.18.18l2,2a.12.12,0,0,0,.09,0Zm1.59-2a.12.12,0,0,0,0-.17l-2.3-1.54a.12.12,0,0,0-.17,0,.13.13,0,0,0,0,.18l2.3,1.54.07,0A.14.14,0,0,0,363.29,535.26Zm1.18-2.24a.13.13,0,0,0-.07-.16l-2.56-1.06a.13.13,0,0,0-.17.07.13.13,0,0,0,.07.16l2.56,1.06h.05A.13.13,0,0,0,364.47,533Zm.71-2.42a.12.12,0,0,0-.09-.15l-2.72-.54a.12.12,0,0,0-.15.1.13.13,0,0,0,.1.15l2.72.54h0A.12.12,0,0,0,365.18,530.6Zm-2.66-2.39h2.77a.12.12,0,0,0,.13-.12.13.13,0,0,0-.13-.13h-2.77a.13.13,0,1,0,0,.26Zm-.18-2,2.71-.54a.12.12,0,0,0,.1-.15.13.13,0,0,0-.15-.1l-2.71.54a.12.12,0,0,0-.1.15.12.12,0,0,0,.12.1Zm-.56-1.88,2.55-1.06a.11.11,0,0,0,.07-.16.12.12,0,0,0-.16-.07l-2.56,1.06a.11.11,0,0,0-.07.16.13.13,0,0,0,.12.08Zm-.92-1.73,2.3-1.54a.13.13,0,0,0,0-.18.12.12,0,0,0-.17,0l-2.3,1.54a.12.12,0,0,0,0,.17.14.14,0,0,0,.11.06Zm-1.24-1.52,2-2a.13.13,0,1,0-.18-.18l-2,2a.13.13,0,0,0,0,.18.14.14,0,0,0,.09,0Zm-1.51-1.25,1.54-2.31a.13.13,0,0,0-.22-.14l-1.53,2.3a.13.13,0,0,0,0,.18l.07,0A.16.16,0,0,0,358.11,519.87Zm-1.73-.94,1.06-2.56a.12.12,0,0,0-.07-.16.11.11,0,0,0-.16.07l-1.06,2.56a.12.12,0,0,0,.07.16h0A.13.13,0,0,0,356.38,518.93Zm-1.87-.57.54-2.72a.14.14,0,0,0-.1-.15.13.13,0,0,0-.15.1l-.54,2.72a.12.12,0,0,0,.1.14h0A.14.14,0,0,0,354.51,518.36Z" transform="translate(-336.32 -511.97)"/><polygon class="cls-4" points="14.61 14.73 16.14 16.25 25.11 7.19 25.11 7.19 14.61 14.73"/><polygon class="cls-4" points="17.67 17.76 16.14 16.25 25.11 7.19 25.11 7.19 17.67 17.76"/><polygon class="cls-5" points="14.72 14.63 16.25 16.14 7.27 25.2 7.27 25.2 14.72 14.63"/><polygon class="cls-5" points="17.78 17.65 16.25 16.14 7.27 25.2 7.27 25.2 17.78 17.65"/></svg>