<svg version="1.1" xmlns="http://www.w3.org/2000/svg" xmlns:xlink="http://www.w3.org/1999/xlink" x="0px" y="0px"
     viewBox="0 0 1000 1000" enable-background="new 0 0 1000 1000" xml:space="preserve">
    <g><path d="M753.5,656.9c116.3-163.4,97.8-385-43.9-526.9C632.1,52.6,529.2,10,419.7,10c-109.5,0-212.4,42.6-289.8,120C-30,289.8-30,549.8,129.9,709.7c77.2,77.2,179.9,119.7,289.1,119.7l0,0c85.9,0,168.1-26.2,237.7-75.8l14.4-10.2L917.9,990l72.1-72.1L743.3,671.2L753.5,656.9z M645.5,645.6c-60.3,60.3-140.5,93.5-225.7,93.5c-85.3,0-165.5-33.2-225.8-93.5c-124.4-124.4-124.4-327,0-451.6c60.3-60.2,140.5-93.4,225.7-93.4c85.3,0,165.5,33.2,225.8,93.5C769.9,318.5,769.9,521.1,645.5,645.6z"/></g>
</svg>