<svg xmlns="http://www.w3.org/2000/svg" viewBox="0 0 590 590">
    <defs>
        <style>.cls-1{fill:#84ad56;}.cls-2{fill:#fff;}</style>
    </defs>
    <circle class="cls-1" cx="295" cy="295" r="295"/>
    <path class="cls-2"
          d="M207.43,399.93q-44.43,0-70.22-28t-25.79-77q0-48.78,25.86-76.82t70.15-28q24.16,0,43.92,9.55a79.8,79.8,0,0,1,31.7,27,78.64,78.64,0,0,1,13.5,39.78H255.22q-3-18.69-16.1-29.94t-31.69-11.24q-24,0-38.38,18.83t-14.34,50.75q0,32.47,14.2,51.24t38.66,18.76q18.83,0,31.62-10.4T255.36,326h41.33q-3.53,33.87-27.7,53.9T207.43,399.93Z"/>
    <path class="cls-2"
          d="M315.24,338.65h40.91q1.39,12.36,13.14,20T398,366.34q16.86,0,27.48-7.24t10.61-18.49a19.07,19.07,0,0,0-7.87-15.88q-7.87-6-26.29-10.12l-26.42-5.76q-55.82-12-55.81-56.65,0-27.84,21.72-45t55.87-17.14q35.15,0,56.09,16.65t21.51,44.35H435.15a26.13,26.13,0,0,0-11.32-20.17q-10.33-7.38-26.36-7.38-15.74,0-25.37,6.89t-9.63,18.13q0,9.28,7.8,15t25.38,9.84l24.6,5.2q30.5,6.48,44.42,20.18t13.91,36.89q0,29.52-22.21,46.88t-60,17.36q-36.69,0-58.41-16.37T315.24,338.65Z"/>
</svg>