<?xml version="1.0" encoding="utf-8"?>
<!-- Designed by Vexels.com - 2016 All Rights Reserved - https://vexels.com/terms-and-conditions/  -->

<svg version="1.1" id="Layer_1" xmlns="http://www.w3.org/2000/svg" xmlns:xlink="http://www.w3.org/1999/xlink" x="0px" y="0px"
	 width="1200px" height="1200px" viewBox="0 0 1200 1200" enable-background="new 0 0 1200 1200" xml:space="preserve">
<g>
	<path fill="#5C5C5B" d="M1096.473,376.455c-87.015-188.08-277.186-318.551-497.941-318.551C295.572,57.904,50,303.513,50,606.472
		c0,64.993,11.328,127.122,32.002,185.002L1096.473,376.455z"/>
	<path opacity="0.4" fill="#BA9218" d="M1006.167,964.757C1095.516,867.143,1150,737.277,1150,594.524
		c0-64.855-11.259-127.194-32.005-185.002L644.693,603.145L1006.167,964.757z"/>
	<path fill="#E95A0C" d="M577.115,630.825L103.527,824.538c83.756,181.036,263.31,308.372,473.589,317.558V630.825z"/>
	<path fill="#75AD2C" d="M625.861,1141.831c133.034-5.771,253.892-58.373,345.898-142.557l-345.898-345.88V1141.831z"/>
</g>
</svg>
