<svg xmlns="http://www.w3.org/2000/svg" viewBox="0 0 136.55 136.55">
    <path d="M608.68,528.15A68.28,68.28,0,1,0,677,596.43a68.36,68.36,0,0,0-68.28-68.28Zm0,124.14a55.87,55.87,0,1,1,55.86-55.86,55.92,55.92,0,0,1-55.86,55.86Zm0,0"
          transform="translate(-540.4 -528.15)"/>
    <path d="M625.36,613.1a23.61,23.61,0,0,1-33.36,0,6.21,6.21,0,0,0-8.78,8.78,36,36,0,0,0,50.92,0,6.21,6.21,0,0,0-8.78-8.78Zm0,0"
          transform="translate(-540.4 -528.15)"/>
    <path d="M588.05,589a8.26,8.26,0,1,0-5.85,2.43,8.32,8.32,0,0,0,5.85-2.43Zm0,0"
          transform="translate(-540.4 -528.15)"/>
    <path d="M635.16,574.91a8.28,8.28,0,1,0,5.85,2.42,8.34,8.34,0,0,0-5.85-2.42Zm0,0"
          transform="translate(-540.4 -528.15)"/>
</svg>