<svg xmlns="http://www.w3.org/2000/svg" viewBox="0 0 191.66 185.64">
    <path d="M579.29,547.75v83.77c0,6-2.69,8.69-8.79,8.7-6.38,0-12.77,0-19.15,0-5.14-.06-8-2.88-8-8q0-84.68,0-169.34c0-5.46,2.84-8.23,8.34-8.26q9.72,0,19.45,0c5.28,0,8.12,2.87,8.12,8.15Q579.31,505.26,579.29,547.75Z"
          transform="translate(-387.63 -454.6)"/>
    <path d="M491.42,560.9q0-34.87,0-69.74c0-7.45,2.22-9.67,9.58-9.67h17.07c6.86,0,9.24,2.31,9.25,9.11q0,35.76,0,71.53,0,34.56,0,69.14c0,6.41-2.53,8.94-8.84,9s-12.37,0-18.56,0c-5.74,0-8.46-2.64-8.47-8.39q-.06-35.48,0-70.93Z"
          transform="translate(-387.63 -454.6)"/>
    <path d="M475.39,576.77q0,27.38,0,54.73c0,6.21-2.56,8.71-8.71,8.72s-12.57,0-18.85,0c-5.54,0-8.3-2.75-8.3-8.29q0-55.48,0-111c0-5.91,2.69-8.56,8.65-8.63,6.28-.07,12.57-.08,18.85,0,5.76.07,8.38,2.74,8.39,8.5q0,28,0,55.92Z"
          transform="translate(-387.63 -454.6)"/>
    <path d="M387.63,591.57q0-19.74,0-39.49c0-6.08,2.59-8.69,8.73-8.74s12.37,0,18.55,0c6,0,8.65,2.7,8.65,8.57q0,39.93,0,79.87c0,5.68-2.73,8.39-8.45,8.43q-9.57.06-19.15,0c-5.48,0-8.31-2.84-8.32-8.26Q387.63,611.76,387.63,591.57Z"
          transform="translate(-387.63 -454.6)"/>
</svg>