<svg xmlns="http://www.w3.org/2000/svg" viewBox="0 0 1029.13 2044.48">
    <path d="M1043.11-17.13v-338A126.8,126.8,0,0,0,916.46-481.8H170.65A126.79,126.79,0,0,0,44-355.15V-224a15,15,0,0,0-14.35,15V-149A15,15,0,0,0,44-134.06v60.8A19,19,0,0,0,26.66-54.41V64.72A19,19,0,0,0,44,83.57v30.27a19,19,0,0,0-18.35,18.95V251.92a19,19,0,0,0,18.35,19V1436c0,67.28,52.75,122.47,119.08,126.4H583.38v.24H916.46A126.79,126.79,0,0,0,1043.11,1436V221.65a14,14,0,0,0,11.68-13.77V-3.35A14,14,0,0,0,1043.11-17.13ZM1015.46,1436a98.5,98.5,0,0,1-98.51,98.5H171.14a98.5,98.5,0,0,1-98.5-98.5V-355.15a98.5,98.5,0,0,1,98.5-98.5H292.45l.11.19h17.3l4.66,8.25A65.41,65.41,0,0,0,371.46-412H716.64a65.38,65.38,0,0,0,56.93-33.22l4.67-8.25h17.3l.11-.19H917a98.5,98.5,0,0,1,98.51,98.5Z"
          transform="translate(-28.7 481.8)"/>
</svg>