<svg xmlns="http://www.w3.org/2000/svg" viewBox="0 0 128.17 150.36">
    <path
          d="M594.06,656.11a5.75,5.75,0,0,0,3.92-1.54l22.1-20.64v77.85a5.74,5.74,0,1,0,11.47,0V633.93l22.11,20.64a5.74,5.74,0,1,0,7.83-8.39l-31.76-29.65-.15-.13-.19-.16-.25-.19-.19-.13-.27-.16-.21-.12-.27-.13-.23-.1-.28-.1-.24-.09-.29-.07-.24-.06-.33-.05-.22,0a5.07,5.07,0,0,0-.55,0h0c-.19,0-.37,0-.55,0l-.23,0-.31.05-.27.06-.26.07-.27.09-.25.09-.26.12-.24.11-.24.14-.23.14-.24.16-.21.16-.23.19-.12.11-31.76,29.65a5.74,5.74,0,0,0,3.92,9.93Z"
          transform="translate(-560.77 -614.98)"/>
    <path
          d="M683.21,664H652.6a5.74,5.74,0,0,0,0,11.48h24.87v78.43H572.25V675.44h24.87a5.74,5.74,0,1,0,0-11.48H566.51a5.74,5.74,0,0,0-5.74,5.74v89.91a5.74,5.74,0,0,0,5.74,5.74h116.7a5.73,5.73,0,0,0,5.73-5.74V669.7A5.73,5.73,0,0,0,683.21,664Z"
          transform="translate(-560.77 -614.98)"/>
</svg>