<svg id="Слой_1" data-name="Слой 1" xmlns="http://www.w3.org/2000/svg" viewBox="0 0 809 465.1">
  <defs>
    <style>
      .cls-1 {
        fill: #fff;
      }

      .cls-2 {
        fill: #dee1e6;
      }

      .cls-3 {
        fill: #fef8fa;
      }

      .cls-4 {
        fill: #eceef0;
      }

      .cls-5 {
        fill: #959293;
      }

      .cls-6 {
        fill: #c2bcbe;
      }

      .cls-7 {
        fill: #ff4c46;
      }

      .cls-8 {
        fill: #ffbb2d;
      }

      .cls-9 {
        fill: #18c232;
      }
    </style>
  </defs>
  <g>
    <g>
      <rect class="cls-1" y="34.04" width="809" height="431.06"/>
      <rect class="cls-2" y="440.93" width="809" height="24.17"/>
    </g>
    <g>
      <rect class="cls-3" width="809" height="34.41"/>
      <g>
        <rect class="cls-4" x="241.68" y="7.66" width="325.64" height="19.09" rx="3.24"/>
        <g>
          <path class="cls-5" d="M235.62,330.1a.6.6,0,0,0,.42-.18.57.57,0,0,0,.17-.41.61.61,0,0,0-.17-.42l-4.11-4.1,4.11-4.11a.59.59,0,0,0,.17-.42.58.58,0,0,0-.17-.41.59.59,0,0,0-.42-.17.58.58,0,0,0-.41.17l-4.53,4.52a.6.6,0,0,0,0,.83l4.53,4.52A.59.59,0,0,0,235.62,330.1Z" transform="translate(-135.83 -307.78)"/>
          <path class="cls-6" d="M253.43,330.1a.59.59,0,0,1-.41-.18.57.57,0,0,1-.17-.41.61.61,0,0,1,.17-.42l4.11-4.1L253,320.88a.59.59,0,0,1-.17-.42.58.58,0,0,1,.58-.58.59.59,0,0,1,.42.17l4.52,4.52a.59.59,0,0,1,0,.83l-4.52,4.52A.6.6,0,0,1,253.43,330.1Z" transform="translate(-135.83 -307.78)"/>
          <path class="cls-5" d="M367.05,321.12l-4.46-2.38a.45.45,0,0,0-.45,0l-4.34,2.38a.46.46,0,0,0-.24.41v3.36a6.64,6.64,0,0,0,4,6.11l.6.25a.37.37,0,0,0,.18,0l.18,0,.69-.29h0a6.58,6.58,0,0,0,4.07-6.13v-3.31A.47.47,0,0,0,367.05,321.12Zm-.7,3.71a5.64,5.64,0,0,1-3.49,5.26l-.49.2V319.68h0l4,2.12Z" transform="translate(-135.83 -307.78)"/>
          <g>
            <path class="cls-6" d="M205.68,319.15h-5.31a.53.53,0,0,0-.53.53v10.61a.53.53,0,0,0,.53.53h13.79a.53.53,0,0,0,.53-.53V319.68a.53.53,0,0,0-.53-.53Zm-4.78,10.61v-9.55h3.72v9.55Zm12.73,0h-7.95v-9.55h7.95Z" transform="translate(-135.83 -307.78)"/>
            <rect class="cls-6" x="66.66" y="14.55" width="1.06" height="4.24"/>
          </g>
          <circle class="cls-7" cx="17.87" cy="17.2" r="4.24"/>
          <circle class="cls-8" cx="30.6" cy="17.2" r="4.24"/>
          <circle class="cls-9" cx="43.32" cy="17.2" r="4.24"/>
          <g>
            <g>
              <path class="cls-5" d="M516.69,324.84h-.83a1.24,1.24,0,0,0-1.29-1,1.3,1.3,0,0,0-1.07.51,2.18,2.18,0,0,0-.4,1.36,2.11,2.11,0,0,0,.41,1.37,1.28,1.28,0,0,0,1.07.5,1.33,1.33,0,0,0,.84-.25,1.28,1.28,0,0,0,.45-.72h.83a1.86,1.86,0,0,1-.68,1.24,2.22,2.22,0,0,1-1.45.48,2.17,2.17,0,0,1-1.69-.71,3.16,3.16,0,0,1,0-3.81,2.37,2.37,0,0,1,3.16-.2A2,2,0,0,1,516.69,324.84Z" transform="translate(-135.83 -307.78)"/>
              <path class="cls-5" d="M519.57,328.33a2.19,2.19,0,0,1-1.7-.71,3.17,3.17,0,0,1,0-3.82,2.41,2.41,0,0,1,3.4,0,3.17,3.17,0,0,1,0,3.82A2.2,2.2,0,0,1,519.57,328.33Zm-1.08-1.24a1.44,1.44,0,0,0,2.16,0,2.58,2.58,0,0,0,0-2.76,1.44,1.44,0,0,0-2.16,0,2.58,2.58,0,0,0,0,2.76Z" transform="translate(-135.83 -307.78)"/>
              <path class="cls-5" d="M524.67,328.33a1.92,1.92,0,0,1-1.56-.72,2.86,2.86,0,0,1-.6-1.9,2.92,2.92,0,0,1,.59-1.9,1.93,1.93,0,0,1,1.56-.71,1.89,1.89,0,0,1,1,.24,1.65,1.65,0,0,1,.65.66h0v-2.78h.85v7h-.81v-.86h0a1.88,1.88,0,0,1-.67.7A1.94,1.94,0,0,1,524.67,328.33Zm.16-4.49a1.27,1.27,0,0,0-1.06.51,2.18,2.18,0,0,0-.39,1.36,2.21,2.21,0,0,0,.39,1.37,1.37,1.37,0,0,0,2.12,0,2.14,2.14,0,0,0,.4-1.36,2.2,2.2,0,0,0-.4-1.36A1.28,1.28,0,0,0,524.83,323.84Z" transform="translate(-135.83 -307.78)"/>
              <path class="cls-5" d="M528.74,322.33a.53.53,0,0,1-.53-.52.55.55,0,0,1,.53-.53.49.49,0,0,1,.37.16.47.47,0,0,1,.16.37.5.5,0,0,1-.16.37A.51.51,0,0,1,528.74,322.33Zm-.43,5.91v-5.06h.85v5.06Z" transform="translate(-135.83 -307.78)"/>
              <path class="cls-5" d="M530.3,328.24v-5.06h.8V324h0a1.6,1.6,0,0,1,.63-.66,1.86,1.86,0,0,1,1-.23,1.68,1.68,0,0,1,1.29.49,1.94,1.94,0,0,1,.46,1.37v3.28h-.84v-3.13a1.37,1.37,0,0,0-.29-.94,1.12,1.12,0,0,0-.87-.33,1.24,1.24,0,0,0-1,.39,1.47,1.47,0,0,0-.36,1v3Z" transform="translate(-135.83 -307.78)"/>
              <path class="cls-5" d="M537.63,330.14a2.44,2.44,0,0,1-1.43-.42,1.57,1.57,0,0,1-.7-1.06h.87a1,1,0,0,0,.48.55,1.54,1.54,0,0,0,.82.21,1.45,1.45,0,0,0,1-.34,1.16,1.16,0,0,0,.38-.91v-.8h0a1.74,1.74,0,0,1-.66.66,1.86,1.86,0,0,1-1,.25,1.92,1.92,0,0,1-1.55-.71,2.84,2.84,0,0,1-.58-1.88,2.87,2.87,0,0,1,.59-1.89,1.92,1.92,0,0,1,1.56-.7,1.81,1.81,0,0,1,1.65.93h0v-.85h.81v5a1.82,1.82,0,0,1-.63,1.45A2.38,2.38,0,0,1,537.63,330.14Zm0-2.61a1.29,1.29,0,0,0,1.07-.5,2.44,2.44,0,0,0,0-2.68,1.3,1.3,0,0,0-1.07-.51,1.27,1.27,0,0,0-1,.5,2.53,2.53,0,0,0,0,2.7A1.26,1.26,0,0,0,537.6,327.53Z" transform="translate(-135.83 -307.78)"/>
              <path class="cls-5" d="M540.93,324.58a1.28,1.28,0,0,1,.53-1.07,2.36,2.36,0,0,1,2.66,0,1.43,1.43,0,0,1,.55,1.06h-.81a.78.78,0,0,0-.33-.57,1.23,1.23,0,0,0-.75-.21,1.22,1.22,0,0,0-.74.2.64.64,0,0,0-.28.54c0,.35.28.59.84.73l.78.19a2.36,2.36,0,0,1,1.08.51,1.13,1.13,0,0,1,.31.86,1.32,1.32,0,0,1-.56,1.09,2.37,2.37,0,0,1-1.45.42,2.18,2.18,0,0,1-1.36-.41,1.54,1.54,0,0,1-.61-1.09h.85q.14.81,1.17.81a1.39,1.39,0,0,0,.81-.21.61.61,0,0,0,.3-.54.57.57,0,0,0-.18-.44,1.54,1.54,0,0,0-.6-.27l-.89-.23C541.37,325.73,540.93,325.27,540.93,324.58Z" transform="translate(-135.83 -307.78)"/>
              <path class="cls-5" d="M545.92,322h.85v1.22h1v.7h-1v3a.74.74,0,0,0,.15.51.61.61,0,0,0,.47.16l.35,0v.71a3.07,3.07,0,0,1-.53,0,1.33,1.33,0,0,1-1-.31,1.49,1.49,0,0,1-.3-1v-3.05h-.75v-.7h.75Z" transform="translate(-135.83 -307.78)"/>
              <path class="cls-5" d="M550.6,328.33a2.21,2.21,0,0,1-1.71-.71,3.17,3.17,0,0,1,0-3.82,2.2,2.2,0,0,1,1.71-.7,2.17,2.17,0,0,1,1.69.7,3.17,3.17,0,0,1,0,3.82A2.18,2.18,0,0,1,550.6,328.33Zm-1.09-1.24a1.33,1.33,0,0,0,1.09.49,1.29,1.29,0,0,0,1.07-.49,2.58,2.58,0,0,0,0-2.76,1.29,1.29,0,0,0-1.07-.49,1.33,1.33,0,0,0-1.09.49,2.58,2.58,0,0,0,0,2.76Z" transform="translate(-135.83 -307.78)"/>
              <path class="cls-5" d="M553.78,328.24v-5.06h.8V324h0a1.67,1.67,0,0,1,.63-.66,1.9,1.9,0,0,1,1-.23,1.64,1.64,0,0,1,1.28.49A2,2,0,0,1,558,325v3.28h-.85v-3.13a1.37,1.37,0,0,0-.29-.94,1.12,1.12,0,0,0-.87-.33,1.24,1.24,0,0,0-1,.39,1.47,1.47,0,0,0-.36,1v3Z" transform="translate(-135.83 -307.78)"/>
              <path class="cls-5" d="M562.38,326.79h.83a1.64,1.64,0,0,1-.69,1.1,2.3,2.3,0,0,1-1.41.44,2.21,2.21,0,0,1-1.71-.7,3.22,3.22,0,0,1,0-3.81,2.08,2.08,0,0,1,1.66-.72,2,2,0,0,1,1.61.68,2.7,2.7,0,0,1,.6,1.84v.32h-3.63V326a1.64,1.64,0,0,0,.4,1.16,1.35,1.35,0,0,0,1.08.44,1.4,1.4,0,0,0,.81-.22A1,1,0,0,0,562.38,326.79Zm-1.32-3a1.26,1.26,0,0,0-1,.41,1.54,1.54,0,0,0-.42,1h2.74a1.58,1.58,0,0,0-.38-1A1.25,1.25,0,0,0,561.06,323.83Z" transform="translate(-135.83 -307.78)"/>
              <path class="cls-5" d="M564,324.58a1.31,1.31,0,0,1,.53-1.07,2.1,2.1,0,0,1,1.36-.41,2.06,2.06,0,0,1,1.3.41,1.4,1.4,0,0,1,.55,1.06H567a.78.78,0,0,0-.33-.57,1.46,1.46,0,0,0-1.49,0,.64.64,0,0,0-.28.54c0,.35.28.59.84.73l.78.19a2.36,2.36,0,0,1,1.08.51,1.13,1.13,0,0,1,.31.86,1.29,1.29,0,0,1-.56,1.09,2.37,2.37,0,0,1-1.45.42,2.2,2.2,0,0,1-1.36-.41,1.54,1.54,0,0,1-.61-1.09h.85c.09.54.49.81,1.18.81a1.33,1.33,0,0,0,.8-.21.61.61,0,0,0,.3-.54.6.6,0,0,0-.17-.44,1.69,1.69,0,0,0-.6-.27l-.89-.23C564.48,325.73,564,325.27,564,324.58Z" transform="translate(-135.83 -307.78)"/>
              <path class="cls-5" d="M569.87,328.13a.58.58,0,0,1-.4.16.57.57,0,0,1-.39-.16.54.54,0,0,1-.16-.4.55.55,0,0,1,.55-.55.54.54,0,0,1,.4.16.57.57,0,0,1,.16.39A.58.58,0,0,1,569.87,328.13Z" transform="translate(-135.83 -307.78)"/>
              <path class="cls-5" d="M571.29,328.24v-5.06h.79V324h0a1.29,1.29,0,0,1,.46-.67,1.26,1.26,0,0,1,.77-.24l.34,0V324a1.54,1.54,0,0,0-.45-.05,1,1,0,0,0-.79.33,1.22,1.22,0,0,0-.3.86v3.15Z" transform="translate(-135.83 -307.78)"/>
              <path class="cls-5" d="M578.5,323.18v5.06h-.8v-.82h0a1.67,1.67,0,0,1-1.6.91,1.69,1.69,0,0,1-1.29-.5,1.93,1.93,0,0,1-.46-1.37v-3.28h.85v3.13c0,.85.38,1.27,1.16,1.27a1.25,1.25,0,0,0,1-.39,1.5,1.5,0,0,0,.35-1v-3Z" transform="translate(-135.83 -307.78)"/>
            </g>
            <path class="cls-5" d="M507.56,324.32h-.36v-1.08a2,2,0,0,0-4,0v1.08h-.36a.38.38,0,0,0-.37.37v3.67a.37.37,0,0,0,.37.37h4.72a.37.37,0,0,0,.37-.37v-3.67a.38.38,0,0,0-.37-.37Zm-3.62-1.08a1.26,1.26,0,0,1,2.52,0v1.08h-2.52Zm0,0" transform="translate(-135.83 -307.78)"/>
            <path class="cls-5" d="M691.31,323.1a3.54,3.54,0,0,1,2.54-1.05h.52l-.84-.85.47-.47,1.65,1.65L694,324l-.47-.47.84-.85h-.54a2.93,2.93,0,1,0,2.93,2.93v-.34h.66v.34a3.6,3.6,0,1,1-6.13-2.55Z" transform="translate(-135.83 -307.78)"/>
          </g>
          <g>
            <path class="cls-6" d="M921,330.8a.43.43,0,0,1-.43-.43v-1.54h-1.33a.41.41,0,0,1-.4-.44v-8.8a.4.4,0,0,1,.4-.42h8.8a.45.45,0,0,1,.46.42v1.55h1.3a.43.43,0,0,1,.43.43v8.8a.43.43,0,0,1-.43.43Zm8.37-.86V322h-7.94v7.95Zm-1.73-8.8V320h-7.95v8h.88v-6.41a.43.43,0,0,1,.43-.43Z" transform="translate(-135.83 -307.78)"/>
            <polygon class="cls-6" points="769.34 16.64 765.4 16.64 765.4 12.71 764.28 12.71 764.28 16.64 760.35 16.64 760.35 17.77 764.28 17.77 764.28 21.7 765.4 21.7 765.4 17.77 769.34 17.77 769.34 16.64"/>
            <g>
              <path class="cls-6" d="M874.52,322.11a.55.55,0,0,0,.33-.13l1.86-1.75v6.58a.49.49,0,0,0,1,0v-6.58l1.86,1.75a.49.49,0,0,0,.67-.71l-2.69-2.51h0l0,0h-.06l0,0H877l0,0h0l0,0h0l-2.69,2.51a.49.49,0,0,0,0,.68A.48.48,0,0,0,874.52,322.11Z" transform="translate(-135.83 -307.78)"/>
              <path class="cls-6" d="M882.05,322.77h-2.59a.49.49,0,0,0,0,1h2.11v6.63h-8.9v-6.63h2.1a.49.49,0,1,0,0-1h-2.58a.49.49,0,0,0-.49.49v7.6a.48.48,0,0,0,.49.48h9.86a.48.48,0,0,0,.49-.48v-7.6A.49.49,0,0,0,882.05,322.77Z" transform="translate(-135.83 -307.78)"/>
            </g>
          </g>
        </g>
      </g>
    </g>
  </g>
</svg>
