<svg xmlns="http://www.w3.org/2000/svg" viewBox="0 0 177.05 177.05">
    <defs>
        <style>.cls-1{fill:#335cd2;}.cls-2{fill:#fff;}</style>
    </defs>
    <polygon class="cls-1"
             points="176.49 53.16 176.06 47.84 175.61 43.97 175.11 40.59 174.57 37.69 174.03 35.28 173.41 32.87 172.83 30.94 172.19 29.02 171.64 27.57 171.05 26.13 170.4 24.68 169.69 23.24 168.9 21.8 168.34 20.84 167.73 19.88 167.09 18.92 166.4 17.96 165.66 17 164.87 16.04 164.02 15.08 162.93 13.95 161.97 13.03 161.01 12.18 160.05 11.39 159.09 10.65 158.13 9.96 157.17 9.32 156.21 8.71 154.77 7.88 153.33 7.12 151.88 6.43 150.44 5.8 149 5.22 147.07 4.53 145.15 3.92 142.74 3.26 140.32 2.69 137.43 2.12 134.05 1.57 130.18 1.09 125.35 0.66 118.57 0.29 104.52 0.02 93.38 0 89.5 0 61.76 0.23 54.34 0.57 48.9 1.02 44.95 1.47 41.49 1.99 38.53 2.54 36.07 3.09 34.09 3.59 32.12 4.16 30.15 4.8 28.18 5.53 26.71 6.14 25.23 6.8 23.76 7.53 22.29 8.33 21.3 8.91 20.32 9.53 19.34 10.19 18.36 10.89 17.38 11.65 16.4 12.46 15.41 13.33 14.26 14.44 13.32 15.42 12.45 16.4 11.64 17.38 10.89 18.36 10.18 19.34 9.52 20.33 8.91 21.31 8.05 22.78 7.28 24.25 6.57 25.73 5.93 27.2 5.34 28.68 4.63 30.65 4.01 32.62 3.46 34.59 2.86 37.05 2.35 39.52 1.83 42.48 1.35 45.94 0.88 50.38 0.49 55.82 0.16 64.23 0 84.05 0 89.5 0.22 116.64 0.56 123.9 0.99 129.22 1.44 133.08 1.95 136.46 2.49 139.36 3.02 141.77 3.65 144.18 4.22 146.11 4.87 148.04 5.41 149.48 6 150.93 6.65 152.37 7.37 153.81 8.15 155.25 8.72 156.22 9.32 157.18 9.96 158.13 10.65 159.1 11.39 160.06 12.19 161.02 13.04 161.97 14.12 163.1 15.08 164.02 16.04 164.87 17 165.67 17.96 166.4 18.92 167.09 19.88 167.74 20.84 168.34 22.29 169.18 23.73 169.93 25.17 170.63 26.61 171.26 28.06 171.83 29.98 172.52 31.91 173.13 33.84 173.67 36.25 174.26 38.66 174.76 41.56 175.26 44.94 175.74 49.77 176.24 56.06 176.66 66.23 176.97 83.68 177.05 86.56 177.05 114.61 176.83 122.11 176.48 127.11 176.09 131.6 175.58 135.1 175.06 138.09 174.51 140.59 173.97 142.58 173.46 144.57 172.89 146.56 172.25 148.06 171.71 149.55 171.13 151.04 170.48 152.53 169.77 154.02 169 155.02 168.44 156.01 167.84 157 167.2 158 166.52 158.99 165.79 159.98 165.01 160.97 164.17 161.97 163.27 162.64 162.62 163.59 161.63 164.47 160.65 165.28 159.67 166.05 158.69 166.76 157.71 167.43 156.73 168.05 155.75 168.91 154.27 169.7 152.8 170.41 151.32 171.06 149.85 171.66 148.37 172.37 146.4 173 144.44 173.56 142.46 174.16 140 174.68 137.53 175.21 134.57 175.69 131.12 176.17 126.67 176.56 121.23 176.89 112.82 177.05 93.01 177.05 87.56 176.83 60.42 176.49 53.16"/>
    <path class="cls-2"
          d="M509.25,577.25q-15.76,0-24.93-10T475.17,540q0-17.33,9.18-27.27t24.9-10a35.33,35.33,0,0,1,15.59,3.39,28.46,28.46,0,0,1,11.25,9.58,27.87,27.87,0,0,1,4.79,14.13H526.21a16.94,16.94,0,0,0-5.71-10.63,16.73,16.73,0,0,0-11.25-4,16.26,16.26,0,0,0-13.62,6.68q-5.1,6.69-5.09,18,0,11.52,5,18.18a16.28,16.28,0,0,0,13.72,6.66,17.21,17.21,0,0,0,11.22-3.69A16.37,16.37,0,0,0,526.26,551h14.67q-1.24,12-9.83,19.14T509.25,577.25Z"
          transform="translate(-451.81 -451.47)"/>
    <path class="cls-2"
          d="M547.52,555.49H562a9.56,9.56,0,0,0,4.66,7.11,18.23,18.23,0,0,0,10.21,2.72,16.91,16.91,0,0,0,9.75-2.57,7.69,7.69,0,0,0,3.77-6.56,6.77,6.77,0,0,0-2.79-5.64q-2.8-2.14-9.33-3.59l-9.39-2.05q-19.8-4.23-19.8-20.1a19.36,19.36,0,0,1,7.7-16q7.71-6.09,19.84-6.09,12.47,0,19.91,5.91a19.67,19.67,0,0,1,7.63,15.75H590.08a9.24,9.24,0,0,0-4-7.16,15.66,15.66,0,0,0-9.35-2.62,15.16,15.16,0,0,0-9,2.44,7.57,7.57,0,0,0-3.42,6.44,6.37,6.37,0,0,0,2.77,5.34q2.78,2,9,3.49l8.73,1.85q10.83,2.29,15.77,7.16t4.94,13.1q0,10.47-7.88,16.64t-21.31,6.16q-13,0-20.73-5.81A19.8,19.8,0,0,1,547.52,555.49Z"
          transform="translate(-451.81 -451.47)"/>
</svg>