<svg id="Слой_1" data-name="Слой 1" xmlns="http://www.w3.org/2000/svg" viewBox="0 0 274.91 57.13"><defs><style>.cls-1{fill:#335cd2;}.cls-2{fill:#fff;}</style></defs><polygon class="cls-1" points="56.95 17.15 56.81 15.44 56.66 14.19 56.5 13.1 56.33 12.16 56.16 11.38 55.95 10.61 55.77 9.98 55.56 9.36 55.38 8.9 55.19 8.43 54.98 7.96 54.75 7.5 54.5 7.03 54.32 6.72 54.12 6.41 53.91 6.1 53.69 5.79 53.45 5.49 53.2 5.17 52.92 4.87 52.57 4.5 52.26 4.21 51.95 3.93 51.64 3.67 51.33 3.44 51.02 3.21 50.71 3.01 50.4 2.81 49.94 2.54 49.47 2.3 49.01 2.07 48.54 1.87 48.08 1.69 47.45 1.46 46.83 1.27 46.06 1.05 45.28 0.87 44.34 0.68 43.25 0.51 42.01 0.35 40.45 0.21 38.26 0.09 33.73 0.01 30.13 0 28.88 0 19.93 0.07 17.53 0.19 15.78 0.33 14.5 0.47 13.39 0.64 12.43 0.82 11.64 1 11 1.16 10.37 1.34 9.73 1.55 9.09 1.78 8.62 1.98 8.14 2.19 7.67 2.43 7.19 2.69 6.87 2.88 6.56 3.07 6.24 3.29 5.92 3.51 5.61 3.76 5.29 4.02 4.97 4.3 4.6 4.66 4.3 4.97 4.02 5.29 3.76 5.61 3.51 5.92 3.29 6.24 3.07 6.56 2.87 6.88 2.6 7.35 2.35 7.83 2.12 8.3 1.91 8.78 1.72 9.25 1.5 9.89 1.29 10.53 1.12 11.16 0.92 11.96 0.76 12.75 0.59 13.71 0.43 14.82 0.28 16.26 0.16 18.01 0.05 20.73 0 27.12 0 28.88 0.07 37.63 0.18 39.98 0.32 41.69 0.47 42.94 0.63 44.03 0.8 44.97 0.97 45.75 1.18 46.52 1.36 47.15 1.57 47.77 1.75 48.23 1.94 48.7 2.15 49.16 2.38 49.63 2.63 50.09 2.81 50.41 3.01 50.72 3.21 51.02 3.44 51.34 3.68 51.65 3.93 51.95 4.21 52.26 4.56 52.63 4.87 52.92 5.18 53.2 5.49 53.45 5.8 53.69 6.11 53.91 6.42 54.12 6.73 54.32 7.19 54.59 7.66 54.83 8.12 55.05 8.59 55.26 9.05 55.44 9.67 55.67 10.3 55.86 10.92 56.04 11.7 56.23 12.47 56.39 13.41 56.55 14.5 56.7 16.06 56.87 18.09 57 21.37 57.1 27 57.13 27.93 57.13 36.98 57.06 39.4 56.94 41.01 56.82 42.46 56.66 43.59 56.49 44.56 56.31 45.36 56.13 46.01 55.97 46.65 55.79 47.29 55.58 47.77 55.41 48.26 55.22 48.74 55.01 49.22 54.78 49.7 54.53 50.02 54.35 50.34 54.16 50.66 53.95 50.98 53.73 51.3 53.49 51.62 53.24 51.94 52.97 52.26 52.68 52.48 52.47 52.78 52.15 53.07 51.84 53.33 51.52 53.58 51.2 53.81 50.89 54.02 50.57 54.22 50.25 54.5 49.78 54.76 49.3 54.99 48.83 55.2 48.35 55.39 47.88 55.62 47.24 55.82 46.6 56 45.97 56.2 45.17 56.37 44.38 56.53 43.42 56.69 42.31 56.84 40.87 56.97 39.12 57.08 36.4 57.13 30.01 57.13 28.25 57.06 19.5 56.95 17.15"/><path class="cls-2" d="M421.41,552a10.39,10.39,0,0,1-8-3.21q-3-3.21-2.95-8.82c0-3.72,1-6.66,3-8.8a10.38,10.38,0,0,1,8-3.21,11.43,11.43,0,0,1,5,1.1,9.25,9.25,0,0,1,3.63,3.09,9,9,0,0,1,1.54,4.55h-4.73a5.49,5.49,0,0,0-1.85-3.43,5.42,5.42,0,0,0-3.63-1.28,5.25,5.25,0,0,0-4.39,2.15,9.35,9.35,0,0,0-1.64,5.82,9.51,9.51,0,0,0,1.62,5.86,5.25,5.25,0,0,0,4.43,2.15,5.5,5.5,0,0,0,3.62-1.19,5.23,5.23,0,0,0,1.85-3.25h4.74a8.88,8.88,0,0,1-3.17,6.17A10.7,10.7,0,0,1,421.41,552Z" transform="translate(-402.88 -511.44)"/><path class="cls-2" d="M433.76,545h4.69a3.1,3.1,0,0,0,1.5,2.29,5.89,5.89,0,0,0,3.3.88,5.49,5.49,0,0,0,3.14-.83,2.49,2.49,0,0,0,1.22-2.12,2.17,2.17,0,0,0-.9-1.81,7.82,7.82,0,0,0-3-1.16l-3-.66q-6.39-1.38-6.39-6.49a6.24,6.24,0,0,1,2.49-5.15,11.56,11.56,0,0,1,12.82-.06,6.32,6.32,0,0,1,2.46,5.08H447.5a3,3,0,0,0-1.3-2.31,5,5,0,0,0-3-.85,4.9,4.9,0,0,0-2.9.79,2.44,2.44,0,0,0-1.11,2.08,2,2,0,0,0,.9,1.72,8.08,8.08,0,0,0,2.9,1.13l2.82.59a10.32,10.32,0,0,1,5.09,2.31,5.69,5.69,0,0,1,1.59,4.23,6.47,6.47,0,0,1-2.54,5.37,12.87,12.87,0,0,1-13.57.11A6.39,6.39,0,0,1,433.76,545Z" transform="translate(-402.88 -511.44)"/><path class="cls-2" d="M487.21,540.47h-4.4a3.43,3.43,0,0,0-1.16-1.87,3.22,3.22,0,0,0-2.14-.7,3.18,3.18,0,0,0-2.74,1.41,8,8,0,0,0,0,7.8,3.21,3.21,0,0,0,2.76,1.41,3.38,3.38,0,0,0,2.16-.67,3.46,3.46,0,0,0,1.16-1.9h4.38a6.63,6.63,0,0,1-2.4,4.57,8.26,8.26,0,0,1-5.35,1.69,8.07,8.07,0,0,1-6.17-2.42,10.62,10.62,0,0,1,0-13.15,9,9,0,0,1,11.48-.69A6.81,6.81,0,0,1,487.21,540.47Z" transform="translate(-402.88 -511.44)"/><path class="cls-2" d="M503.82,549.82a9.34,9.34,0,0,1-12.49,0,9.19,9.19,0,0,1-2.3-6.62,9,9,0,0,1,2.33-6.57,9.24,9.24,0,0,1,12.45,0,10.57,10.57,0,0,1,0,13.2Zm-6.24-1.2a3.2,3.2,0,0,0,2.75-1.42,8.29,8.29,0,0,0,0-8,3.37,3.37,0,0,0-5.51,0,8.26,8.26,0,0,0,0,8A3.21,3.21,0,0,0,497.58,548.62Z" transform="translate(-402.88 -511.44)"/><path class="cls-2" d="M515,552.11a6.21,6.21,0,0,1-5.14-2.4,10.29,10.29,0,0,1-1.9-6.53,10.11,10.11,0,0,1,1.91-6.49A6.26,6.26,0,0,1,515,534.3a5.89,5.89,0,0,1,3.23.89,5.22,5.22,0,0,1,2,2.35h.09v-8.93H525v23.23h-4.63v-3h-.08a5.18,5.18,0,0,1-2.08,2.35A6.17,6.17,0,0,1,515,552.11Zm1.59-14a3.27,3.27,0,0,0-2.79,1.39,7.4,7.4,0,0,0,0,7.5,3.3,3.3,0,0,0,2.79,1.37,3.34,3.34,0,0,0,2.8-1.38,7.24,7.24,0,0,0,0-7.48A3.33,3.33,0,0,0,516.54,538.07Z" transform="translate(-402.88 -511.44)"/><path class="cls-2" d="M532.4,532a2.6,2.6,0,0,1-3.57,0,2.34,2.34,0,0,1-.73-1.72,2.31,2.31,0,0,1,.73-1.73,2.63,2.63,0,0,1,3.57,0,2.27,2.27,0,0,1,.73,1.73A2.3,2.3,0,0,1,532.4,532Zm-4.14,19.87V534.58H533v17.26Z" transform="translate(-402.88 -511.44)"/><path class="cls-2" d="M536.09,551.84V534.58h4.54v3.07h.1a5.51,5.51,0,0,1,2.07-2.52,6,6,0,0,1,3.32-.87,5.73,5.73,0,0,1,4.43,1.7,6.78,6.78,0,0,1,1.56,4.75v11.13h-4.7V541.69a3.84,3.84,0,0,0-.81-2.62,3,3,0,0,0-2.36-.92,3.2,3.2,0,0,0-2.51,1.05,3.93,3.93,0,0,0-.94,2.74v9.9Z" transform="translate(-402.88 -511.44)"/><path class="cls-2" d="M563,558.34a9.62,9.62,0,0,1-5.53-1.47,5.25,5.25,0,0,1-2.46-3.81h4.61a2.52,2.52,0,0,0,1.23,1.46,4.48,4.48,0,0,0,2.28.55,4,4,0,0,0,2.78-.91,3.11,3.11,0,0,0,1-2.43v-3h-.1a4.84,4.84,0,0,1-2,2.24,6.76,6.76,0,0,1-8.38-1.47,9.66,9.66,0,0,1-1.91-6.33,10.05,10.05,0,0,1,1.9-6.47,6.28,6.28,0,0,1,5.18-2.37,5.92,5.92,0,0,1,3.24.89,5.47,5.47,0,0,1,2.09,2.4H567v-3h4.64v17a5.92,5.92,0,0,1-2.36,4.91A9.92,9.92,0,0,1,563,558.34Zm.08-10.17a3.41,3.41,0,0,0,2.81-1.33,5.83,5.83,0,0,0,1-3.66,6,6,0,0,0-1-3.72,3.32,3.32,0,0,0-2.8-1.39,3.25,3.25,0,0,0-2.76,1.38,6.07,6.07,0,0,0-1,3.73,5.89,5.89,0,0,0,1,3.67A3.3,3.3,0,0,0,563.06,548.17Z" transform="translate(-402.88 -511.44)"/><path class="cls-2" d="M574.18,545.22h4.69a3.09,3.09,0,0,0,1.5,2.3,6,6,0,0,0,3.3.87,5.41,5.41,0,0,0,3.14-.83,2.47,2.47,0,0,0,1.22-2.11,2.19,2.19,0,0,0-.9-1.82,8,8,0,0,0-3-1.16l-3-.66q-6.39-1.37-6.39-6.49a6.24,6.24,0,0,1,2.49-5.15,11.56,11.56,0,0,1,12.82-.06,6.33,6.33,0,0,1,2.46,5.08h-4.55a3,3,0,0,0-1.3-2.31,5.11,5.11,0,0,0-3-.85,4.9,4.9,0,0,0-2.9.79,2.44,2.44,0,0,0-1.11,2.08,2,2,0,0,0,.9,1.72,8.08,8.08,0,0,0,2.9,1.13l2.82.6a10.15,10.15,0,0,1,5.09,2.31,5.65,5.65,0,0,1,1.59,4.22,6.46,6.46,0,0,1-2.54,5.37,12.87,12.87,0,0,1-13.57.11A6.39,6.39,0,0,1,574.18,545.22Z" transform="translate(-402.88 -511.44)"/><path class="cls-2" d="M596.72,530.6h4.7v4h3.19v3.54h-3.19v8.26c0,1.3.68,2,2,2a7.68,7.68,0,0,0,1.15-.08v3.46a10.23,10.23,0,0,1-2.24.19c-2,0-3.48-.36-4.34-1.09a4.49,4.49,0,0,1-1.3-3.62v-9.07h-2.43v-3.54h2.43Z" transform="translate(-402.88 -511.44)"/><path class="cls-2" d="M621.11,549.82a9.34,9.34,0,0,1-12.49,0,9.19,9.19,0,0,1-2.3-6.62,9,9,0,0,1,2.32-6.57,9.26,9.26,0,0,1,12.46,0,10.57,10.57,0,0,1,0,13.2Zm-6.24-1.2a3.2,3.2,0,0,0,2.75-1.42,8.37,8.37,0,0,0,0-8,3.37,3.37,0,0,0-5.51,0,8.26,8.26,0,0,0,0,8A3.21,3.21,0,0,0,614.87,548.62Z" transform="translate(-402.88 -511.44)"/><path class="cls-2" d="M625.83,551.84V534.58h4.54v3.07h.1a5.51,5.51,0,0,1,2.07-2.52,6,6,0,0,1,3.32-.87,5.73,5.73,0,0,1,4.43,1.7,6.78,6.78,0,0,1,1.56,4.75v11.13h-4.7V541.69a3.89,3.89,0,0,0-.8-2.62,3,3,0,0,0-2.37-.92,3.18,3.18,0,0,0-2.5,1.05,3.94,3.94,0,0,0-1,2.74v9.9Z" transform="translate(-402.88 -511.44)"/><path class="cls-2" d="M656.26,546.56h4.32a6,6,0,0,1-2.54,4.09,8.84,8.84,0,0,1-5.34,1.56,8.23,8.23,0,0,1-6.24-2.38,9.15,9.15,0,0,1-2.26-6.54,9.4,9.4,0,0,1,2.26-6.61,8.73,8.73,0,0,1,12-.12,8.78,8.78,0,0,1,2.22,6.29v1.44h-11.9v.29a4.22,4.22,0,0,0,1.09,3,3.74,3.74,0,0,0,2.87,1.15,4.14,4.14,0,0,0,2.23-.59A2.86,2.86,0,0,0,656.26,546.56Zm-3.69-8.87a3.4,3.4,0,0,0-2.55,1,4.2,4.2,0,0,0-1.15,2.68h7.33a4,4,0,0,0-1.07-2.69A3.38,3.38,0,0,0,652.57,537.69Z" transform="translate(-402.88 -511.44)"/><path class="cls-2" d="M662.85,539.65a4.7,4.7,0,0,1,2-3.95,8.54,8.54,0,0,1,5.29-1.49,8.28,8.28,0,0,1,5.2,1.51,5,5,0,0,1,2,4H673a2.22,2.22,0,0,0-.87-1.65,4,4,0,0,0-4-.08,1.54,1.54,0,0,0-.73,1.34c0,.84.75,1.43,2.25,1.79l3.3.71a7.63,7.63,0,0,1,3.73,1.68,4,4,0,0,1,1.14,3,4.81,4.81,0,0,1-2.13,4.09,9.23,9.23,0,0,1-5.55,1.55,9,9,0,0,1-5.46-1.52,5.33,5.33,0,0,1-2.24-4.07H667a2.44,2.44,0,0,0,1,1.69,3.71,3.71,0,0,0,2.23.6,3.93,3.93,0,0,0,2.1-.49,1.53,1.53,0,0,0,.76-1.35,1.28,1.28,0,0,0-.48-1.05,4.07,4.07,0,0,0-1.64-.67l-3.19-.71C664.49,543.89,662.85,542.23,662.85,539.65Z" transform="translate(-402.88 -511.44)"/></svg>